<?xml version="1.0" encoding="UTF-8" standalone="no"?>
<svg
   height="16px"
   viewBox="0 0 16 16"
   width="16px"
   version="1.1"
   id="svg1"
   xmlns="http://www.w3.org/2000/svg"
   xmlns:svg="http://www.w3.org/2000/svg">
  <defs
     id="defs1" />
  <path
     d="m 8.0000008,1 c -0.5547,0 -1,0.4453 -1,1 v 12 c 0,0.5547 0.4453,1 1,1 0.5546,0 1,-0.4453 1,-1 V 2 c 0,-0.5547 -0.4454,-1 -1,-1 z M 14,3 c -0.5547,0 -1,0.4453 -1,1 v 8 c 0,0.5547 0.4453,1 1,1 0.5546,0 1,-0.4453 1,-1 V 4 C 15,3.4453 14.5546,3 14,3 Z M 5.0000008,4 c -0.5547,0 -1,0.4453 -1,1 v 6 c 0,0.5547 0.4453,1 1,1 0.5546,0 1,-0.4453 1,-1 V 5 c 0,-0.5547 -0.4454,-1 -1,-1 z M 11,5 c -0.554699,0 -0.999999,0.4453 -0.999999,1 v 4 c 0,0.5547 0.4453,1 0.999999,1 0.5546,0 1,-0.4453 1,-1 V 6 C 12,5.4453 11.5546,5 11,5 Z M 2.0000008,7 c -0.5547,0 -1,0.4453 -1,1 0,0.5547 0.4453,1 1,1 0.5546,0 1,-0.4453 1,-1 0,-0.5547 -0.4454,-1 -1,-1 z"
     fill="#222222"
     id="path1-2"
     style="fill:#222222;fill-opacity:1" />
</svg>
