<?xml version="1.0" encoding="UTF-8"?>
<svg height="16px" viewBox="0 0 16 16" width="16px" xmlns="http://www.w3.org/2000/svg" xmlns:xlink="http://www.w3.org/1999/xlink">
    <filter id="a" height="100%" width="100%" x="0%" y="0%">
        <feColorMatrix color-interpolation-filters="sRGB" values="0 0 0 0 1 0 0 0 0 1 0 0 0 0 1 0 0 0 1 0"/>
    </filter>
    <mask id="b">
        <g filter="url(#a)">
            <rect fill-opacity="0.3" height="19.2" width="19.2" x="-1.6" y="-1.6"/>
        </g>
    </mask>
    <clipPath id="c">
        <rect height="152" width="192"/>
    </clipPath>
    <path d="m 4 0 c -1.644531 0 -3 1.355469 -3 3 v 10 c 0 1.644531 1.355469 3 3 3 h 7 c 0.832031 0 1.585938 -0.347656 2.132812 -0.902344 l -1.464843 -1.097656 h -7.667969 c -0.570312 0 -1 -0.429688 -1 -1 v -10 c 0 -0.570312 0.429688 -1 1 -1 h 7 c 0.570312 0 1 0.429688 1 1 v 4.75 l 2 -1.5 v -3.25 c 0 -1.644531 -1.355469 -3 -3 -3 z m 0 0" fill="#3d3846"/>
    <g mask="url(#b)">
        <g clip-path="url(#c)" transform="matrix(1 0 0 1 -168 -16)">
            <path d="m 86 80 h 6 v 32 h -6 z m 0 0" fill="#ffffff"/>
        </g>
    </g>
    <g fill="#3d3846">
        <path d="m 9 10 v 2 c 0 0.550781 0.449219 1 1 1 h 2 l 3.199219 2.398438 c 0.152343 0.113281 0.355469 0.132812 0.523437 0.046874 c 0.171875 -0.082031 0.277344 -0.257812 0.277344 -0.445312 v -8 c 0 -0.1875 -0.105469 -0.363281 -0.277344 -0.445312 c -0.167968 -0.085938 -0.371094 -0.066407 -0.523437 0.046874 l -3.199219 2.398438 h -2 c -0.550781 0 -1 0.449219 -1 1 z m 0 0"/>
        <path d="m 4 3 v 2 h 7 v -2 z m 0 0"/>
        <path d="m 4 6 v 2 h 3.964844 v -2 z m 0 0"/>
    </g>
</svg>
