<?xml version="1.0" encoding="UTF-8"?>
<svg height="128px" viewBox="0 0 128 128" width="128px" xmlns="http://www.w3.org/2000/svg" xmlns:xlink="http://www.w3.org/1999/xlink">
    <filter id="a" height="100%" width="100%" x="0%" y="0%">
        <feColorMatrix color-interpolation-filters="sRGB" values="0 0 0 0 1 0 0 0 0 1 0 0 0 0 1 0 0 0 1 0"/>
    </filter>
    <linearGradient id="b" gradientUnits="userSpaceOnUse">
        <stop offset="0" stop-color="#0e7853"/>
        <stop offset="1" stop-color="#15b27b"/>
    </linearGradient>
    <linearGradient id="c" gradientTransform="matrix(0.558816 0 0 0.588227 177.923401 200.671448)" x1="-287.972015" x2="-287.972015" xlink:href="#b" y1="114.640022" y2="92.859024"/>
    <linearGradient id="d" gradientTransform="matrix(0.558816 0 0 0.588227 177.923401 144.671448)" x1="-287.972015" x2="-287.972015" xlink:href="#b" y1="114.640022" y2="92.859024"/>
    <linearGradient id="e" gradientTransform="matrix(0.558816 0 0 0.588227 177.923401 158.671448)" x1="-287.972015" x2="-287.972015" xlink:href="#b" y1="114.640022" y2="92.859024"/>
    <linearGradient id="f" gradientTransform="matrix(0.558816 0 0 0.588227 177.923401 172.671448)" x1="-287.972015" x2="-287.972015" xlink:href="#b" y1="114.640022" y2="92.859024"/>
    <linearGradient id="g" gradientTransform="matrix(0.558816 0 0 0.588227 177.923401 186.671448)" x1="-287.972015" x2="-287.972015" xlink:href="#b" y1="114.640022" y2="92.859024"/>
    <linearGradient id="h" gradientTransform="matrix(0.558816 0 0 0.588227 177.923401 214.671448)" x1="-287.972015" x2="-287.972015" xlink:href="#b" y1="114.640022" y2="92.859024"/>
    <linearGradient id="i" gradientUnits="userSpaceOnUse" x1="116" x2="116" y1="63.869493" y2="95.869493">
        <stop offset="0" stop-color="#3d3846"/>
        <stop offset="0.5" stop-color="#c0bfbc"/>
        <stop offset="1" stop-color="#5e5c64"/>
    </linearGradient>
    <linearGradient id="j" gradientTransform="matrix(0.846154 0 0 1.264706 9.8461 -208.293571)" gradientUnits="userSpaceOnUse" x1="12" x2="116" y1="224" y2="224">
        <stop offset="0" stop-color="#c0bfbc"/>
        <stop offset="0.0384615" stop-color="#dfdedd"/>
        <stop offset="0.0769231" stop-color="#c0bfbc"/>
        <stop offset="0.923077" stop-color="#c0bfbc"/>
        <stop offset="0.961538" stop-color="#dddcda"/>
        <stop offset="1" stop-color="#c0bfbc"/>
    </linearGradient>
    <linearGradient id="k" gradientUnits="userSpaceOnUse" x1="76" x2="76" y1="40" y2="120">
        <stop offset="0" stop-color="#b83bf7"/>
        <stop offset="0.298833" stop-color="#5d5c60"/>
        <stop offset="0.498054" stop-color="#c0bfbc"/>
        <stop offset="0.697276" stop-color="#5d5c60"/>
        <stop offset="1" stop-color="#b83bf7"/>
    </linearGradient>
    <linearGradient id="l" gradientUnits="userSpaceOnUse" x1="100" x2="100" y1="40" y2="120.3125">
        <stop offset="0" stop-color="#15b27b"/>
        <stop offset="0.298833" stop-color="#1adb97"/>
        <stop offset="0.498054" stop-color="#5fedbb"/>
        <stop offset="0.697276" stop-color="#1adb97"/>
        <stop offset="1" stop-color="#15b27b"/>
    </linearGradient>
    <clipPath id="m">
        <path d="m 102 65 h 26 v 30 h -26 z m 0 0"/>
    </clipPath>
    <clipPath id="n">
        <path d="m 104.941406 65 c -1.632812 0.03125 -2.941406 1.363281 -2.941406 3 v 24 c 0 2.121094 2.144531 3.570312 4.113281 2.785156 l 20 -8 c 1.140625 -0.457031 1.886719 -1.558594 1.886719 -2.785156 v -8 c 0 -1.226562 -0.746094 -2.332031 -1.886719 -2.785156 l -20 -8 c -0.371093 -0.148438 -0.769531 -0.222656 -1.171875 -0.214844 z m 0 0"/>
    </clipPath>
    <mask id="o">
        <g filter="url(#a)">
            <rect fill-opacity="0.3" height="153.6" width="153.6" x="-12.8" y="-12.8"/>
        </g>
    </mask>
    <clipPath id="p">
        <rect height="152" width="192"/>
    </clipPath>
    <mask id="q">
        <g filter="url(#a)">
            <rect fill-opacity="0.3" height="153.6" width="153.6" x="-12.8" y="-12.8"/>
        </g>
    </mask>
    <clipPath id="r">
        <rect height="152" width="192"/>
    </clipPath>
    <mask id="s">
        <g filter="url(#a)">
            <rect fill-opacity="0.3" height="153.6" width="153.6" x="-12.8" y="-12.8"/>
        </g>
    </mask>
    <clipPath id="t">
        <rect height="152" width="192"/>
    </clipPath>
    <mask id="u">
        <g filter="url(#a)">
            <rect fill-opacity="0.3" height="153.6" width="153.6" x="-12.8" y="-12.8"/>
        </g>
    </mask>
    <clipPath id="v">
        <rect height="152" width="192"/>
    </clipPath>
    <linearGradient id="w" gradientTransform="matrix(1 0 0 -1 4 504.3125)" x1="116" x2="116" xlink:href="#b" y1="212" y2="292"/>
    <mask id="x">
        <g filter="url(#a)">
            <rect fill-opacity="0.3" height="153.6" width="153.6" x="-12.8" y="-12.8"/>
        </g>
    </mask>
    <clipPath id="y">
        <rect height="152" width="192"/>
    </clipPath>
    <path d="m 18.828125 246 h 2.34375 c 3.769531 0 6.828125 3.058594 6.828125 6.828125 v 6.34375 c 0 3.769531 -3.058594 6.828125 -6.828125 6.828125 h -2.34375 c -3.769531 0 -6.828125 -3.058594 -6.828125 -6.828125 v -6.34375 c 0 -3.769531 3.058594 -6.828125 6.828125 -6.828125 z m 0 0" fill="none" stroke="url(#c)" stroke-linecap="round" stroke-width="4" transform="matrix(1 0 0 1 0 -172)"/>
    <path d="m 18.828125 190 h 2.34375 c 3.769531 0 6.828125 3.058594 6.828125 6.828125 v 6.34375 c 0 3.769531 -3.058594 6.828125 -6.828125 6.828125 h -2.34375 c -3.769531 0 -6.828125 -3.058594 -6.828125 -6.828125 v -6.34375 c 0 -3.769531 3.058594 -6.828125 6.828125 -6.828125 z m 0 0" fill="none" stroke="url(#d)" stroke-linecap="round" stroke-width="4" transform="matrix(1 0 0 1 0 -172)"/>
    <path d="m 18.828125 204 h 2.34375 c 3.769531 0 6.828125 3.058594 6.828125 6.828125 v 6.34375 c 0 3.769531 -3.058594 6.828125 -6.828125 6.828125 h -2.34375 c -3.769531 0 -6.828125 -3.058594 -6.828125 -6.828125 v -6.34375 c 0 -3.769531 3.058594 -6.828125 6.828125 -6.828125 z m 0 0" fill="none" stroke="url(#e)" stroke-linecap="round" stroke-width="4" transform="matrix(1 0 0 1 0 -172)"/>
    <path d="m 18.828125 218 h 2.34375 c 3.769531 0 6.828125 3.058594 6.828125 6.828125 v 6.34375 c 0 3.769531 -3.058594 6.828125 -6.828125 6.828125 h -2.34375 c -3.769531 0 -6.828125 -3.058594 -6.828125 -6.828125 v -6.34375 c 0 -3.769531 3.058594 -6.828125 6.828125 -6.828125 z m 0 0" fill="none" stroke="url(#f)" stroke-linecap="round" stroke-width="4" transform="matrix(1 0 0 1 0 -172)"/>
    <path d="m 18.828125 232 h 2.34375 c 3.769531 0 6.828125 3.058594 6.828125 6.828125 v 6.34375 c 0 3.769531 -3.058594 6.828125 -6.828125 6.828125 h -2.34375 c -3.769531 0 -6.828125 -3.058594 -6.828125 -6.828125 v -6.34375 c 0 -3.769531 3.058594 -6.828125 6.828125 -6.828125 z m 0 0" fill="none" stroke="url(#g)" stroke-linecap="round" stroke-width="4" transform="matrix(1 0 0 1 0 -172)"/>
    <path d="m 28 34 h 72 c 4.417969 0 8 3.582031 8 8 v 70 c 0 4.417969 -3.582031 8 -8 8 h -72 c -4.417969 0 -8 -3.582031 -8 -8 v -70 c 0 -4.417969 3.582031 -8 8 -8 z m 0 0" fill="#15b27b"/>
    <path d="m 18.828125 260 h 2.34375 c 3.769531 0 6.828125 3.058594 6.828125 6.828125 v 6.34375 c 0 3.769531 -3.058594 6.828125 -6.828125 6.828125 h -2.34375 c -3.769531 0 -6.828125 -3.058594 -6.828125 -6.828125 v -6.34375 c 0 -3.769531 3.058594 -6.828125 6.828125 -6.828125 z m 0 0" fill="none" stroke="url(#h)" stroke-linecap="round" stroke-width="4" transform="matrix(1 0 0 1 0 -172)"/>
    <path d="m 104.941406 65 c -1.632812 0.03125 -2.941406 1.363281 -2.941406 3 v 24 c 0 2.121094 2.144531 3.570312 4.113281 2.785156 l 20 -8 c 1.140625 -0.457031 1.886719 -1.558594 1.886719 -2.785156 v -8 c 0 -1.226562 -0.746094 -2.332031 -1.886719 -2.785156 l -20 -8 c -0.371093 -0.148438 -0.769531 -0.222656 -1.171875 -0.214844 z m 0 0" fill="url(#i)"/>
    <path d="m 28 32 h 72 c 4.417969 0 8 3.582031 8 8 v 70 c 0 4.417969 -3.582031 8 -8 8 h -72 c -4.417969 0 -8 -3.582031 -8 -8 v -70 c 0 -4.417969 3.582031 -8 8 -8 z m 0 0" fill="url(#j)"/>
    <path d="m 28 8 h 72 c 4.417969 0 8 3.582031 8 8 v 84 c 0 4.417969 -3.582031 8 -8 8 h -72 c -4.417969 0 -8 -3.582031 -8 -8 v -84 c 0 -4.417969 3.582031 -8 8 -8 z m 0 0" fill="#ffffff"/>
    <path d="m 40 64 h 60 v 16 h -60 z m 0 0" fill="#deddda"/>
    <path d="m 40 34 h 60 v 16 h -60 z m 0 0" fill="#deddda"/>
    <path d="m 72 64 h 19.921875 c 4.417969 0 8 3.582031 8 8 v 16 c 0 4.417969 -3.582031 8 -8 8 h -19.921875 c -4.417969 0 -8 -3.582031 -8 -8 v -16 c 0 -4.417969 3.582031 -8 8 -8 z m 0 0" fill="url(#k)"/>
    <path d="m 40 42 h 24 v 16 h -24 z m 0 0" fill="#deddda"/>
    <g stroke-linecap="round">
        <path d="m 31 23 c 0 1.65625 -1.34375 3 -3 3 s -3 -1.34375 -3 -3 s 1.34375 -3 3 -3 s 3 1.34375 3 3 z m 0 0" fill="#c0bfbc" stroke="#c0bfbc" stroke-width="2"/>
        <path d="m 31 51 c 0 1.65625 -1.34375 3 -3 3 s -3 -1.34375 -3 -3 s 1.34375 -3 3 -3 s 3 1.34375 3 3 z m 0 0" fill="#c0bfbc" stroke="#c0bfbc" stroke-width="2"/>
        <path d="m 31 65 c 0 1.65625 -1.34375 3 -3 3 s -3 -1.34375 -3 -3 s 1.34375 -3 3 -3 s 3 1.34375 3 3 z m 0 0" fill="#c0bfbc" stroke="#c0bfbc" stroke-width="2"/>
        <path d="m 31 37 c 0 1.65625 -1.34375 3 -3 3 s -3 -1.34375 -3 -3 s 1.34375 -3 3 -3 s 3 1.34375 3 3 z m 0 0" fill="#c0bfbc" stroke="#c0bfbc" stroke-width="2"/>
        <path d="m 31 79 c 0 1.65625 -1.34375 3 -3 3 s -3 -1.34375 -3 -3 s 1.34375 -3 3 -3 s 3 1.34375 3 3 z m 0 0" fill="#c0bfbc" stroke="#c0bfbc" stroke-width="2"/>
        <path d="m 31 93 c 0 1.65625 -1.34375 3 -3 3 s -3 -1.34375 -3 -3 s 1.34375 -3 3 -3 s 3 1.34375 3 3 z m 0 0" fill="#c0bfbc" stroke="#c0bfbc" stroke-width="2"/>
        <path d="m 12 66.828125 c 0 -3.78125 3.046875 -6.828125 6.828125 -6.828125 h 2.34375 c 3.78125 0 6.828125 3.046875 6.828125 6.828125" fill="none" stroke="#15b27b" stroke-width="4"/>
        <path d="m 12 38.828125 c 0 -3.78125 3.046875 -6.828125 6.828125 -6.828125 h 2.34375 c 3.78125 0 6.828125 3.046875 6.828125 6.828125" fill="none" stroke="#15b27b" stroke-width="4"/>
        <path d="m 12 24.828125 c 0 -3.78125 3.046875 -6.828125 6.828125 -6.828125 h 2.34375 c 3.78125 0 6.828125 3.046875 6.828125 6.828125" fill="none" stroke="#15b27b" stroke-width="4"/>
        <path d="m 12 52.828125 c 0 -3.78125 3.046875 -6.828125 6.828125 -6.828125 h 2.34375 c 3.78125 0 6.828125 3.046875 6.828125 6.828125" fill="none" stroke="#15b27b" stroke-width="4"/>
        <path d="m 12 80.828125 c 0 -3.78125 3.046875 -6.828125 6.828125 -6.828125 h 2.34375 c 3.78125 0 6.828125 3.046875 6.828125 6.828125" fill="none" stroke="#15b27b" stroke-width="4"/>
    </g>
    <path d="m 40 20 h 44 v 6 h -44 z m 0 0" fill="#c0bfbc"/>
    <path d="m 12 94.828125 c 0 -3.78125 3.046875 -6.828125 6.828125 -6.828125 h 2.34375 c 3.78125 0 6.828125 3.046875 6.828125 6.828125" fill="none" stroke="#15b27b" stroke-linecap="round" stroke-width="4"/>
    <path d="m 84 64 l 32 -24.3125 v 80.625 l -32 -24.3125 z m 0 0" fill="url(#l)"/>
    <g clip-path="url(#m)">
        <g clip-path="url(#n)">
            <g mask="url(#o)">
                <g clip-path="url(#p)" transform="matrix(1 0 0 1 -8 -16)">
                    <path d="m 124 89 h 12 v 2 h -12 z m 0 0" fill="#5e5c64"/>
                </g>
            </g>
            <g mask="url(#q)">
                <g clip-path="url(#r)" transform="matrix(1 0 0 1 -8 -16)">
                    <path d="m 124 93 h 12 v 2 h -12 z m 0 0" fill="#5e5c64"/>
                </g>
            </g>
            <g mask="url(#s)">
                <g clip-path="url(#t)" transform="matrix(1 0 0 1 -8 -16)">
                    <path d="m 124 97 h 12 v 2 h -12 z m 0 0" fill="#5e5c64"/>
                </g>
            </g>
            <g mask="url(#u)">
                <g clip-path="url(#v)" transform="matrix(1 0 0 1 -8 -16)">
                    <path d="m 124 101 h 12 v 2 h -12 z m 0 0" fill="#5e5c64"/>
                </g>
            </g>
        </g>
    </g>
    <path d="m 116 212 v 80.3125" fill="none" stroke="url(#w)" stroke-linecap="round" stroke-linejoin="round" stroke-miterlimit="2" stroke-width="4" transform="matrix(1 0 0 1 0 -172)"/>
    <g mask="url(#x)">
        <g clip-path="url(#y)" transform="matrix(1 0 0 1 -8 -16)">
            <path d="m 86 80 h 6 v 32 h -6 z m 0 0" fill="#ffffff"/>
        </g>
    </g>
</svg>
